<?xml version="1.0" encoding="UTF-8"?>
<!DOCTYPE svg PUBLIC "-//W3C//DTD SVG 1.1//EN" "http://www.w3.org/Graphics/SVG/1.1/DTD/svg11.dtd">
<!-- Creator: CorelDRAW X7 -->
<svg xmlns="http://www.w3.org/2000/svg" xml:space="preserve" width="1.66666in" height="1.66666in" version="1.1" style="shape-rendering:geometricPrecision; text-rendering:geometricPrecision; image-rendering:optimizeQuality; fill-rule:evenodd; clip-rule:evenodd"
viewBox="0 0 1667 1667"
 xmlns:xlink="http://www.w3.org/1999/xlink">
 <defs>
  <style type="text/css">
   <![CDATA[
    .str0 {stroke:#fff;stroke-width:13.3307}
    .fil0 {fill:none}
   ]]>
  </style>
 </defs>
 <g id="Layer_x0020_1">
  <metadata id="CorelCorpID_0Corel-Layer"/>
  <path class="fil0 str0" d="M74 712l-23 -428 117 0 195 427m415 513l128 0m-5 -121l125 0m182 -396l0 130 415 0m-1598 -18l328 0m-286 -223l160 0m-166 -120l97 0m748 115l175 0m-262 -99l145 0m-163 217l-177 -399 154 0 430 397m-1186 30c9,-8 18,-17 26,-25l26 0 222 -1 21 0 21 0 20 0 5 0 1009 -4c136,23 292,101 276,204 -95,110 -371,108 -568,131 -106,113 -212,227 -318,340 -41,0 -83,-1 -125,-2 55,-131 109,-261 164,-392l-497 -7 -143 189 -144 -10c24,-71 48,-142 72,-213 -20,-15 -41,-30 -61,-46 -2,-54 -4,-109 -6,-164z"/>
 </g>
</svg>
