<?xml version="1.0" encoding="UTF-8"?>
<!DOCTYPE svg PUBLIC "-//W3C//DTD SVG 1.1//EN" "http://www.w3.org/Graphics/SVG/1.1/DTD/svg11.dtd">
<!-- Creator: CorelDRAW X7 -->
<svg xmlns="http://www.w3.org/2000/svg" xml:space="preserve" width="1.66666in" height="1.66666in" version="1.1" style="shape-rendering:geometricPrecision; text-rendering:geometricPrecision; image-rendering:optimizeQuality; fill-rule:evenodd; clip-rule:evenodd"
viewBox="0 0 1667 1667"
 xmlns:xlink="http://www.w3.org/1999/xlink">
 <defs>
  <style type="text/css">
   <![CDATA[
    .str0 {stroke:#fff;stroke-width:80.6654}
    .fil0 {fill:none}
   ]]>
  </style>
 </defs>
 <g id="Layer_x0020_1">
  <metadata id="CorelCorpID_0Corel-Layer"/>
  <path class="fil0 str0" d="M225 1092l-95 69m-111 70c60,81 119,74 179,0 50,72 106,70 169,0 49,64 115,70 178,0 47,75 103,86 174,0 61,81 120,92 174,0 49,84 107,77 174,0 40,76 89,85 153,0 59,76 115,85 167,0 59,89 115,84 167,0m-352 -828l0 458m-281 -458l0 458m-280 -289l582 0m-582 165l832 0m-832 124l0 -458 561 0 0 167 271 0 0 291m-1285 -347l0 -76 65 0 0 76m-116 0l0 -143 177 0 0 143m-149 170l174 0m-174 -77l104 0m-190 152l0 -245 283 0 100 252m1041 326l0 74m-1101 -327l46 0 0 51 -46 0 0 -51zm-93 0l46 0 0 51 -46 0 0 -51zm-107 0l47 0 0 51 -47 0 0 -51zm281 -73l-21 0 -7 0 -376 -7 0 0 -32 -1 178 334 8 0 1270 0 145 -231 -175 0 -271 0 -281 0 -280 0 -63 0 -95 -95z"/>
 </g>
</svg>
