<?xml version="1.0" encoding="UTF-8"?>
<!DOCTYPE svg PUBLIC "-//W3C//DTD SVG 1.1//EN" "http://www.w3.org/Graphics/SVG/1.1/DTD/svg11.dtd">
<!-- Creator: CorelDRAW X7 -->
<svg xmlns="http://www.w3.org/2000/svg" xml:space="preserve" width="1.66666in" height="1.66666in" version="1.1" style="shape-rendering:geometricPrecision; text-rendering:geometricPrecision; image-rendering:optimizeQuality; fill-rule:evenodd; clip-rule:evenodd"
viewBox="0 0 1667 1667"
 xmlns:xlink="http://www.w3.org/1999/xlink">
 <defs>
  <style type="text/css">
   <![CDATA[
    .str1 {stroke:#fff;stroke-width:13.3307}
    .str0 {stroke:#fff;stroke-width:9.99606}
    .fil0 {fill:none}
   ]]>
  </style>
 </defs>
 <g id="Layer_x0020_1">
  <metadata id="CorelCorpID_0Corel-Layer"/>
  <g id="_222120644016">
   <path class="fil0 str0" d="M22 1274c5,-276 9,-552 13,-827 5,-21 28,-32 56,-30 323,0 645,0 968,0 27,9 25,12 29,38l0 164 405 0 0 87 152 149 0 419 -131 0c-10,73 -71,130 -148,130 -69,0 -135,-52 -146,-130l-752 0c-2,76 -66,137 -145,137 -79,0 -143,-61 -145,-137l-156 0zm1345 -159c81,0 147,64 147,144 0,79 -66,143 -147,143 -82,0 -148,-64 -148,-143 0,-80 66,-144 148,-144zm-1043 6c82,0 148,64 148,143 0,79 -66,143 -148,143 -81,0 -148,-64 -148,-143 0,-79 67,-143 148,-143z"/>
   <path class="fil0 str1" d="M667 1149l606 0m-917 -831l603 0 0 99m-840 0l177 -161 156 161m-419 195l414 0m85 -4l82 0m-583 110l179 0m308 431l85 0"/>
   <path class="fil0 str0" d="M1088 619l0 655m405 -568l-259 0 0 288 411 0m-281 -288l0 288"/>
  </g>
 </g>
</svg>
